<svg version="1.1" preserveAspectRatio="xMidYMid meet" xmlns="http://www.w3.org/2000/svg" xmlns:xlink="http://www.w3.org/1999/xlink" viewBox="300 220 400 400" style="cursor: pointer;">
    <defs>
        <path d="M681.207,404.754 A181.207,181.207 0 1 0 318.793,404.754 A181.207,181.207 0 1 0 681.207,404.754 Z" stroke-linecap="round" stroke-linejoin="round" stroke-miterlimit="25" id="def-deb29501-8c13-4eba-81a0-0965f88ac819"></path>
        <g transform="matrix(2.357, 0, 0, 2.357, 402.165, 299.139)" fill="#000" stroke="none" stroke-width="1" id="def-116ad1fa-21ef-4863-b217-7f98930d1b37">
            <g transform="translate(-8.5, -5.2)">
                <g></g>
                <g>
                    <path d=" M73.1,20 c-4.6 -1 -7.9 -5 -7.9 -9.8 c0 -2.5 -2 -4.5 -4.5 -4.5 H39.3 c-2.5,0 -4.5,2 -4.5,4.5 c0,4.7 -3.3,8.7 -7.9,9.8 C15.5,22.5,9,28.7,9,43.2 c0,22.6,27.4,51,41,51 c13.6,0,41 -28.4,41 -51 C91,28.7,84.5,22.5,73.1,20 z M71.4,22.4 c1.1,0,2,0.9,2,2 s-0.9,2 -2,2 c-1.1,0 -2 -0.9 -2 -2 S70.4,22.4,71.4,22.4 z M50,52.6 c2.5,0,4.6,2.1,4.6,4.6 c0,2.5 -2.1,4.6 -4.6,4.6 s-4.6 -2.1 -4.6 -4.6 C45.4,54.6,47.5,52.6,50,52.6 z M28.6,22.4 c1.1,0,2,0.9,2,2 s-0.9,2 -2,2 c-1.1,0 -2 -0.9 -2 -2 S27.5,22.4,28.6,22.4 z M26.3,31.6 c0 -1.2,1 -2.3,2.3 -2.3 s2.3,1,2.3,2.3 s-1,2.3 -2.3,2.3 S26.3,32.9,26.3,31.6 z M27.7,39.3 c0 -1.4,1.2 -2.6,2.6 -2.6 c1.4,0,2.6,1.2,2.6,2.6 c0,1.4 -1.2,2.6 -2.6,2.6 C28.9,41.9,27.7,40.7,27.7,39.3 z M33.8,49.7 c-1.8,0 -3.2 -1.4 -3.2 -3.2 c0 -1.8,1.4 -3.2,3.2 -3.2 c1.8,0,3.2,1.4,3.2,3.2 C37,48.3,35.6,49.7,33.8,49.7 z M36.5,53.3 c0 -2.1,1.7 -3.9,3.9 -3.9 c2.1,0,3.9,1.7,3.9,3.9 c0,2.1 -1.7,3.9 -3.9,3.9 C38.3,57.2,36.5,55.4,36.5,53.3 z M50,83.9 l-7.5 -12.5 L50,64 l7.5,7.5 L50,83.9 z M59.6,57.2 c-2.1,0 -3.9 -1.7 -3.9 -3.9 c0 -2.1,1.7 -3.9,3.9 -3.9 c2.1,0,3.9,1.7,3.9,3.9 C63.5,55.4,61.7,57.2,59.6,57.2 z M66.2,49.7 c-1.8,0 -3.2 -1.4 -3.2 -3.2 c0 -1.8,1.4 -3.2,3.2 -3.2 c1.8,0,3.2,1.4,3.2,3.2 C69.4,48.3,67.9,49.7,66.2,49.7 z M69.6,41.9 c-1.4,0 -2.6 -1.2 -2.6 -2.6 c0 -1.4,1.2 -2.6,2.6 -2.6 c1.4,0,2.6,1.2,2.6,2.6 C72.3,40.7,71.1,41.9,69.6,41.9 z M71.4,33.9 c-1.2,0 -2.3 -1 -2.3 -2.3 s1 -2.3,2.3 -2.3 s2.3,1,2.3,2.3 S72.7,33.9,71.4,33.9 z"></path>
                </g>
            </g>
        </g>
        <mask id="mask-f3f950f5-9bb8-4bdb-8094-d745392136a1" x="260.807" y="165.291" width="478.386" height="478.927" maskUnits="userSpaceOnUse" stroke-width="0">
            <rect x="282.552" y="187.036" width="434.897" height="435.437" fill="#fff"></rect>
            <use xlink:href="#def-116ad1fa-21ef-4863-b217-7f98930d1b37"></use>
        </mask>
        <g mask="url(#mask-f3f950f5-9bb8-4bdb-8094-d745392136a1)" id="def-8f0a2f4c-cb34-4f21-851d-14dd365cd541">
            <use xlink:href="#def-deb29501-8c13-4eba-81a0-0965f88ac819" stroke-width="0"></use>
        </g>

        <linearGradient id="gradient-170b36ff-289c-46ba-9467-62baca1fe0aa" gradientUnits="objectBoundingBox" x1="0.5" y1="0" x2="0.5" y2="1">
            <stop offset="0" stop-color="#cca9c4" stop-opacity="1"></stop>
            <stop offset="0.25" stop-color="#bd99ba" stop-opacity="1"></stop>
            <stop offset="0.5" stop-color="#ab86ad" stop-opacity="1"></stop>
            <stop offset="0.75" stop-color="#9874a1" stop-opacity="1"></stop>
            <stop offset="1" stop-color="#876598" stop-opacity="1"></stop>
        </linearGradient>
        <mask id="mask-4450a0ac-ab1a-44c9-81c2-1630ada39e87" x="260.807" y="165.291" width="478.386" height="478.927" maskUnits="userSpaceOnUse" stroke-width="0">
            <rect x="282.552" y="187.036" width="434.897" height="435.437" fill="#000"></rect>
            <use xlink:href="#def-8f0a2f4c-cb34-4f21-851d-14dd365cd541" fill="#fff" stroke="#fff"></use>
        </mask>
        <mask id="mask-2e78538e-f2ca-4e29-98d8-3b7b70a424ba" x="91.988" y="662.699" width="816.025" height="129.751" maskUnits="userSpaceOnUse" stroke-width="0">
            <rect x="97.885" y="668.597" width="804.229" height="117.955" fill="#000"></rect>
            <use xlink:href="#def-c19805ae-57fb-4db0-8eb5-c96e808e7ae6" fill="#fff" stroke="#fff"></use>
        </mask>
    </defs>
    <g mask="url(#mask-4450a0ac-ab1a-44c9-81c2-1630ada39e87)">
        <rect x="282.552" y="187.036" width="434.897" height="435.437" fill="url(#gradient-170b36ff-289c-46ba-9467-62baca1fe0aa)"></rect>
    </g>
</svg>
